<svg width="24" height="25" viewBox="0 0 24 25" fill="none" xmlns="http://www.w3.org/2000/svg">
<path d="M12 1C5.92493 1 1 6.17344 1 12.555C1 18.9366 5.92493 24.1101 12 24.1101C18.0751 24.1101 23 18.9366 23 12.555C22.9932 6.17645 18.0722 1.00715 12 1ZM20.5187 6.54262L19.7564 9.9467L15.7401 11.3529L12.3667 8.51849V4.34201L16.2167 2.72442C17.9598 3.554 19.449 4.87575 20.5187 6.54262ZM20.58 18.4655L16.9437 19.0687L14.9638 16.3212L15.9725 12.0843L19.9442 10.6939L22.2194 13.5618C22.0644 15.3129 21.5013 16.9971 20.58 18.4655ZM7.07238 19.0713L3.42004 18.4655C2.49871 16.9967 1.93582 15.3122 1.78096 13.5607L4.05436 10.6928L8.02611 12.0832L9.0348 16.3223L7.07238 19.0713ZM1.73656 12.4114C1.75607 10.6931 2.16875 9.00484 2.93968 7.48937L3.53444 10.147L1.73656 12.4114ZM9.71961 16.0216L8.74691 11.9303L12 9.19667L15.2538 11.9314L14.2804 16.0216H9.71961ZM20.4656 10.1455L21.0603 7.48786C21.8313 9.00334 22.2439 10.6915 22.2634 12.4099L20.4656 10.1455ZM15.2167 2.31536L12 3.66684L8.76606 2.32157C10.8594 1.58866 13.1222 1.58659 15.2167 2.31536ZM7.76579 2.73326L11.6333 4.34333V8.51849L8.25993 11.3529L4.2436 9.9467L3.48127 6.54262C4.54743 4.88177 6.03021 3.5634 7.76579 2.73326ZM4.0327 19.347L7.0133 19.8416L8.81584 22.8075C6.93846 22.1598 5.27808 20.9586 4.0327 19.347ZM9.86714 23.1041L7.67913 19.5058L9.61667 16.7919H14.3833L16.3486 19.5189L14.4421 23.0289C12.9423 23.4169 11.3784 23.4432 9.8675 23.106L9.86714 23.1041ZM15.4606 22.7076L17.0234 19.8347L19.9687 19.3466C18.7855 20.8773 17.2266 22.0394 15.4606 22.7076Z" fill="url(#paint0_linear_1810_6450)" stroke="url(#paint1_linear_1810_6450)" stroke-width="0.4"/>
<defs>
<linearGradient id="paint0_linear_1810_6450" x1="4.5" y1="1" x2="21.49" y2="21.7228" gradientUnits="userSpaceOnUse">
<stop stop-color="#388AD6"/>
<stop offset="1" stop-color="#3766CF"/>
</linearGradient>
<linearGradient id="paint1_linear_1810_6450" x1="4" y1="1" x2="24.0783" y2="23.1318" gradientUnits="userSpaceOnUse">
<stop stop-color="#388AD6"/>
<stop offset="1" stop-color="#325DB3"/>
</linearGradient>
</defs>
</svg>
