<svg width="63" height="36" viewBox="0 0 63 36" fill="none" xmlns="http://www.w3.org/2000/svg">
<path d="M10.4986 0H52.4986C58.0215 0 62.4986 4.47715 62.4986 10V36H0.212891L10.4986 0Z" fill="#281B79"/>
<path d="M21.5 11.7988H50.2143L47.0714 24.5047H18.5L21.5 11.7988Z" fill="white"/>
<path d="M30.16 18.4667H26.702V22.4707H25.484V12.9507H30.58V14.0987H26.702V17.3187H30.16V18.4667ZM34.512 21.5187C35.1 21.5187 35.5527 21.3927 35.87 21.1407C36.1874 20.8794 36.346 20.5014 36.346 20.0067C36.346 19.596 36.234 19.2507 36.01 18.9707C35.7954 18.6907 35.4407 18.476 34.946 18.3267L33.812 17.9907C33.1027 17.776 32.58 17.454 32.244 17.0247C31.908 16.586 31.74 16.0494 31.74 15.4147C31.74 14.9294 31.8334 14.4907 32.02 14.0987C32.216 13.7067 32.524 13.394 32.944 13.1607C33.3734 12.9274 33.9334 12.8107 34.624 12.8107C35.044 12.8107 35.478 12.862 35.926 12.9647C36.374 13.058 36.8267 13.212 37.284 13.4267L36.892 14.4767C36.444 14.2807 36.038 14.1407 35.674 14.0567C35.3194 13.9634 34.9787 13.9167 34.652 13.9167C34.12 13.9167 33.7047 14.0287 33.406 14.2527C33.1167 14.4674 32.972 14.8267 32.972 15.3307C32.972 15.6947 33.07 16.0027 33.266 16.2547C33.462 16.4974 33.812 16.698 34.316 16.8567L35.45 17.1927C36.8687 17.6127 37.578 18.518 37.578 19.9087C37.578 20.7114 37.3354 21.3647 36.85 21.8687C36.3647 22.3634 35.5854 22.6107 34.512 22.6107C34.0734 22.6107 33.6067 22.5594 33.112 22.4567C32.6267 22.3447 32.1227 22.172 31.6 21.9387L31.978 20.9027C32.4727 21.1267 32.916 21.2854 33.308 21.3787C33.7094 21.472 34.1107 21.5187 34.512 21.5187ZM38.3461 14.0987V12.9507H45.1081V14.0987H42.3361V22.4707H41.1181V14.0987H38.3461Z" fill="#281B79"/>
</svg>
