<svg width="24" height="24" viewBox="0 0 24 24" fill="none" xmlns="http://www.w3.org/2000/svg">
<path fill-rule="evenodd" clip-rule="evenodd" d="M17.3264 3.92233C15.8079 3.92233 14.5766 5.15396 14.5766 6.67305C14.5766 8.19214 15.8079 9.42377 17.3264 9.42377C18.8452 9.42377 20.0772 8.19185 20.0772 6.67305C20.0772 5.15425 18.8452 3.92233 17.3264 3.92233ZM12.7305 6.67305C12.7305 4.13494 14.7878 2.07617 17.3264 2.07617C19.8648 2.07617 21.9233 4.13465 21.9233 6.67305C21.9233 9.21145 19.8648 11.2699 17.3264 11.2699C14.7878 11.2699 12.7305 9.21116 12.7305 6.67305Z" fill="white"/>
<path fill-rule="evenodd" clip-rule="evenodd" d="M6.6741 3.92233C5.15635 3.92233 3.92428 5.1541 3.92428 6.67305C3.92428 8.19199 5.15635 9.42377 6.6741 9.42377C8.19365 9.42377 9.42483 8.19199 9.42483 6.67305C9.42483 5.1541 8.19365 3.92233 6.6741 3.92233ZM2.07812 6.67305C2.07812 4.13479 4.13645 2.07617 6.6741 2.07617C9.21355 2.07617 11.271 4.13479 11.271 6.67305C11.271 9.2113 9.21355 11.2699 6.6741 11.2699C4.13645 11.2699 2.07812 9.2113 2.07812 6.67305Z" fill="white"/>
<path fill-rule="evenodd" clip-rule="evenodd" d="M17.3264 14.5102C15.8079 14.5102 14.5766 15.7418 14.5766 17.2609C14.5766 18.7797 15.8076 20.0108 17.3264 20.0108C18.8455 20.0108 20.0772 18.7794 20.0772 17.2609C20.0772 15.7421 18.8452 14.5102 17.3264 14.5102ZM12.7305 17.2609C12.7305 14.7228 14.7878 12.6641 17.3264 12.6641C19.8648 12.6641 21.9233 14.7225 21.9233 17.2609C21.9233 19.7996 19.8646 21.8569 17.3264 21.8569C14.788 21.8569 12.7305 19.7993 12.7305 17.2609Z" fill="white"/>
<path fill-rule="evenodd" clip-rule="evenodd" d="M6.6741 14.5102C5.15635 14.5102 3.92428 15.742 3.92428 17.2609C3.92428 18.7796 5.15606 20.0108 6.6741 20.0108C8.19395 20.0108 9.42483 18.7796 9.42483 17.2609C9.42483 15.742 8.19365 14.5102 6.6741 14.5102ZM2.07812 17.2609C2.07812 14.7227 4.13645 12.6641 6.6741 12.6641C9.21355 12.6641 11.271 14.7227 11.271 17.2609C11.271 19.7995 9.21326 21.8569 6.6741 21.8569C4.13675 21.8569 2.07812 19.7995 2.07812 17.2609Z" fill="white"/>
</svg>
