<svg width="218" height="119" viewBox="0 0 218 119" fill="none" xmlns="http://www.w3.org/2000/svg">
<path d="M36 0H208C213.523 0 218 4.47715 218 10V119H0L36 0Z" fill="#64000E"/>
<path d="M74.5 39H175L164 81H64L74.5 39Z" fill="white"/>
<path d="M106.6 63.56H96.72V75H93.24V47.8H107.8V51.08H96.72V60.28H106.6V63.56ZM119.034 72.28C120.714 72.28 122.008 71.92 122.914 71.2C123.821 70.4533 124.274 69.3733 124.274 67.96C124.274 66.7867 123.954 65.8 123.314 65C122.701 64.2 121.688 63.5867 120.274 63.16L117.034 62.2C115.008 61.5867 113.514 60.6667 112.554 59.44C111.594 58.1867 111.114 56.6533 111.114 54.84C111.114 53.4533 111.381 52.2 111.914 51.08C112.474 49.96 113.354 49.0667 114.554 48.4C115.781 47.7333 117.381 47.4 119.354 47.4C120.554 47.4 121.794 47.5467 123.074 47.84C124.354 48.1067 125.648 48.5467 126.954 49.16L125.834 52.16C124.554 51.6 123.394 51.2 122.354 50.96C121.341 50.6933 120.368 50.56 119.434 50.56C117.914 50.56 116.728 50.88 115.874 51.52C115.048 52.1333 114.634 53.16 114.634 54.6C114.634 55.64 114.914 56.52 115.474 57.24C116.034 57.9333 117.034 58.5067 118.474 58.96L121.714 59.92C125.768 61.12 127.794 63.7067 127.794 67.68C127.794 69.9733 127.101 71.84 125.714 73.28C124.328 74.6933 122.101 75.4 119.034 75.4C117.781 75.4 116.448 75.2533 115.034 74.96C113.648 74.64 112.208 74.1467 110.714 73.48L111.794 70.52C113.208 71.16 114.474 71.6133 115.594 71.88C116.741 72.1467 117.888 72.28 119.034 72.28ZM129.989 51.08V47.8H149.309V51.08H141.389V75H137.909V51.08H129.989Z" fill="#64000E"/>
</svg>
